<svg width="61" height="56" viewBox="0 0 61 56" fill="none" xmlns="http://www.w3.org/2000/svg">
<path d="M60.8924 27.9048C60.8924 12.4891 47.371 0 30.7066 0C14.0308 0 0.520752 12.4891 0.520752 27.9048C0.520752 41.8293 11.5556 53.3749 25.99 55.466V35.9728H18.3247V27.9065H25.99V21.7553C25.99 14.7634 30.4896 10.9021 37.3871 10.9021C40.6905 10.9021 44.1487 11.4462 44.1487 11.4462V18.3125H40.3359C36.5928 18.3125 35.4231 20.4664 35.4231 22.6726V27.9048H43.794L42.4489 35.971H35.4231V55.4643C49.8463 53.3732 60.8924 41.8275 60.8924 27.9031V27.9048Z" fill="#F7F7F7"/>
</svg>
