<svg width="61" height="56" viewBox="0 0 61 56" fill="none" xmlns="http://www.w3.org/2000/svg">
<path d="M30.8565 0C35.0142 0 38.9091 0.728944 42.5411 2.18683C46.1731 3.64472 49.3511 5.62171 52.0751 8.11779C54.7991 10.6139 56.9497 13.5407 58.5267 16.8982C60.1038 20.2558 60.8923 23.8564 60.8923 27.6999C60.8923 31.5434 60.1038 35.1439 58.5267 38.5015C56.9497 41.8591 54.7991 44.7969 52.0751 47.3151C49.3511 49.8333 46.1731 51.8213 42.5411 53.2792C38.9091 54.7371 35.0142 55.466 30.8565 55.466C26.6988 55.466 22.8039 54.7371 19.1719 53.2792C15.5399 51.8213 12.3738 49.8333 9.6737 47.3151C6.97358 44.7969 4.83499 41.8591 3.25793 38.5015C1.68086 35.1439 0.892334 31.5434 0.892334 27.6999C0.892334 23.8564 1.68086 20.2558 3.25793 16.8982C4.83499 13.5407 6.97358 10.6139 9.6737 8.11779C12.3738 5.62171 15.5399 3.64472 19.1719 2.18683C22.8039 0.728944 26.6988 0 30.8565 0ZM21.5375 20.808H14.0106V43.339H21.5375V20.808ZM17.7382 19.0188C18.7896 19.0188 19.6856 18.6875 20.4264 18.0248C21.1671 17.3621 21.5375 16.5448 21.5375 15.5729C21.5375 14.601 21.1671 13.7837 20.4264 13.121C19.6856 12.4583 18.7896 12.127 17.7382 12.127C16.6868 12.127 15.8027 12.4583 15.0859 13.121C14.369 13.7837 14.0106 14.601 14.0106 15.5729C14.0106 16.5448 14.369 17.3621 15.0859 18.0248C15.8027 18.6875 16.6868 19.0188 17.7382 19.0188ZM47.7741 30.2843C47.7741 28.6939 47.2962 27.1366 46.3404 25.6124C45.3846 24.0883 44.142 22.9286 42.6128 22.1334C41.2269 21.4265 39.614 21.051 37.7741 21.0068C35.9342 20.9627 34.2496 21.2498 32.7203 21.8683V20.808H25.2651V43.339H32.7203V29.5554L35.8744 28.1637C36.2567 27.987 36.7705 27.8987 37.4156 27.8987C38.0608 27.8987 38.5745 28.0091 38.9569 28.23C39.2436 28.3626 39.5303 28.6497 39.8171 29.0915C40.1038 29.5333 40.2472 29.9309 40.2472 30.2843V43.339H47.7741V30.2843Z" fill="#F7F7F7"/>
</svg>
