<svg width="61" height="44" viewBox="0 0 61 44" fill="none" xmlns="http://www.w3.org/2000/svg">
<path d="M30.9466 25.0138C32.0879 25.0138 33.1205 24.5365 34.289 23.4312L57.9299 1.80259C56.9249 0.898198 55.0499 0.471191 52.3597 0.471191H8.60975C6.3271 0.471191 4.72386 0.873117 3.82716 1.70205L27.6042 23.4312C28.7727 24.5114 29.8324 25.0138 30.9466 25.0138ZM1.57175 39.7093L20.7836 22.1501L1.51737 4.59088C1.10972 5.29431 0.892334 6.50008 0.892334 8.2334V35.9663C0.892334 37.7498 1.13685 39.0058 1.57175 39.7093ZM60.2673 39.6841C60.6747 38.9556 60.8923 37.7247 60.8923 35.9663V8.2334C60.8923 6.55035 60.702 5.34457 60.2941 4.66634L41.1096 22.1501L60.2673 39.6841ZM9.42494 43.7536H53.1745C55.4573 43.7536 57.0335 43.3517 57.9299 42.5478L38.365 24.6118L36.5444 26.2949C34.6966 27.9529 32.9302 28.7065 30.9466 28.7065C28.9628 28.7065 27.1966 27.9529 25.3488 26.2949L23.5282 24.6118L3.99018 42.5227C5.02275 43.3517 6.84338 43.7536 9.42494 43.7536Z" fill="#F7F7F7"/>
</svg>
