<svg xmlns="http://www.w3.org/2000/svg" xmlns:xlink="http://www.w3.org/1999/xlink" width="1200" zoomAndPan="magnify" viewBox="0 0 900 262.499992" height="350" preserveAspectRatio="xMidYMid meet" version="1.0"><defs><clipPath id="e165fe7299"><path d="M 0.855469 0 L 899.144531 0 L 899.144531 262 L 0.855469 262 Z M 0.855469 0 " clip-rule="nonzero"/></clipPath><clipPath id="f6328f3aff"><path d="M 33 76.085938 L 306.703125 76.085938 L 306.703125 186 L 33 186 Z M 33 76.085938 " clip-rule="nonzero"/></clipPath><clipPath id="f90119ab18"><path d="M 593 76.085938 L 866.929688 76.085938 L 866.929688 186 L 593 186 Z M 593 76.085938 " clip-rule="nonzero"/></clipPath></defs><g clip-path="url(#e165fe7299)"><path fill="#ffffff" d="M 0.855469 0 L 899.144531 0 L 899.144531 262 L 0.855469 262 Z M 0.855469 0 " fill-opacity="1" fill-rule="nonzero"/><path fill="#070707" d="M 0.855469 0 L 899.144531 0 L 899.144531 262 L 0.855469 262 Z M 0.855469 0 " fill-opacity="1" fill-rule="nonzero"/></g><g clip-path="url(#f6328f3aff)"><path fill="#1d81a0" d="M 441.582031 130.328125 C 443.921875 126.117188 446.058594 122.089844 448.398438 118.203125 C 449.058594 117.117188 450.246094 115.839844 451.351562 115.664062 C 453.234375 115.363281 453.820312 117.199219 454.363281 118.722656 C 456.902344 125.839844 459.4375 132.957031 461.988281 140.0625 C 462.390625 141.203125 462.898438 142.3125 463.730469 144.320312 C 465.148438 137.226562 466.40625 131.078125 467.59375 124.917969 C 470.488281 109.933594 473.363281 94.945312 476.246094 79.960938 C 476.28125 79.8125 476.28125 79.652344 476.316406 79.5 C 476.71875 77.933594 477.214844 76.257812 479.175781 76.28125 C 481.066406 76.304688 481.769531 77.757812 482.015625 79.476562 C 482.234375 81.035156 482.554688 82.582031 482.773438 84.136719 C 486.039062 107.347656 489.28125 130.570312 492.558594 153.777344 C 493.214844 158.449219 493.964844 163.097656 494.851562 168.949219 C 495.671875 166.789062 496.214844 165.613281 496.558594 164.390625 C 500.449219 150.605469 504.300781 136.820312 508.164062 123.023438 C 508.246094 122.726562 508.257812 122.402344 508.359375 122.101562 C 508.949219 120.347656 509.121094 118.121094 511.613281 118.042969 C 513.804688 117.972656 514.277344 119.957031 514.960938 121.511719 C 517.277344 126.855469 519.550781 132.207031 522.132812 138.238281 C 524.050781 134.363281 525.6875 131.054688 527.3125 127.742188 C 528.214844 125.910156 528.996094 124.003906 530.011719 122.230469 C 531.050781 120.40625 531.222656 117.511719 533.992188 117.488281 C 537.050781 117.476562 537.152344 120.589844 538.191406 122.550781 C 539.519531 125.042969 540.589844 127.671875 542.023438 130.824219 C 545.171875 130.824219 548.433594 130.800781 551.699219 130.835938 C 553.105469 130.84375 554.640625 130.660156 555.898438 131.144531 C 556.867188 131.527344 558.113281 132.828125 558.078125 133.683594 C 558.042969 134.558594 556.695312 135.496094 555.761719 136.1875 C 555.332031 136.507812 554.539062 136.371094 553.914062 136.371094 C 550.132812 136.382812 546.347656 136.277344 542.574219 136.417969 C 539.808594 136.519531 538.132812 135.378906 537.117188 132.875 C 536.359375 130.996094 535.367188 129.195312 534.222656 126.867188 C 533.425781 127.984375 532.746094 128.710938 532.320312 129.578125 C 530.105469 134.097656 527.960938 138.667969 525.78125 143.199219 C 525.304688 144.191406 524.902344 145.265625 524.246094 146.117188 C 522.816406 148 520.898438 147.90625 519.675781 145.84375 C 518.800781 144.367188 518.257812 142.691406 517.554688 141.101562 C 515.917969 137.386719 514.289062 133.683594 512.261719 129.09375 C 511.464844 131.386719 510.898438 132.773438 510.496094 134.214844 C 506.296875 149.222656 502.132812 164.230469 497.933594 179.226562 C 497.507812 180.738281 497.160156 182.328125 496.398438 183.667969 C 495.9375 184.484375 494.609375 185.523438 493.953125 185.351562 C 492.960938 185.097656 491.773438 184.011719 491.472656 183.03125 C 490.839844 180.945312 490.699219 178.707031 490.386719 176.527344 C 487.609375 157.066406 484.816406 137.59375 482.046875 118.121094 C 481.277344 112.664062 480.582031 107.210938 479.808594 101.753906 C 479.566406 100.058594 479.1875 98.382812 478.667969 95.59375 C 475.53125 111.730469 472.601562 126.773438 469.683594 141.828125 C 468.96875 145.53125 468.378906 149.269531 467.546875 152.949219 C 467.121094 154.816406 467.226562 157.445312 464.398438 157.527344 C 461.953125 157.597656 461.628906 155.300781 461.019531 153.570312 C 458.285156 145.851562 455.585938 138.125 452.875 130.40625 C 452.355469 128.929688 451.800781 127.453125 451.121094 125.5625 C 449.207031 127.5 448.386719 129.820312 447.523438 131.988281 C 446.449219 134.675781 444.660156 135.992188 441.894531 136.164062 C 439.539062 136.300781 437.1875 136.488281 434.832031 136.488281 C 427.425781 136.488281 420.023438 136.3125 412.617188 136.417969 C 410.136719 136.453125 407.933594 134.929688 407 132.632812 C 406.28125 130.890625 405.359375 129.183594 404.242188 126.820312 C 402.972656 129.277344 402.0625 131.03125 401.160156 132.785156 C 399.085938 136.832031 396.996094 140.882812 394.945312 144.953125 C 394.183594 146.464844 393.027344 147.871094 391.378906 147.457031 C 390.285156 147.179688 389.164062 145.785156 388.65625 144.628906 C 386.765625 140.304688 385.136719 135.875 383.386719 131.492188 C 383.109375 130.789062 382.660156 130.152344 382.046875 129.035156 C 381.378906 131.339844 380.847656 133.140625 380.339844 134.941406 C 376.058594 150.226562 371.78125 165.519531 367.5 180.804688 C 366.472656 184.496094 365.457031 185.835938 363.761719 185.453125 C 361.085938 184.855469 361.28125 182.375 361.007812 180.507812 C 359.839844 172.882812 358.964844 165.222656 357.800781 157.597656 C 356.4375 148.609375 354.753906 139.671875 353.460938 130.671875 C 352.25 122.285156 351.375 113.84375 350.324219 105.433594 C 349.953125 102.527344 349.515625 99.628906 348.640625 96.664062 C 348.074219 99.238281 347.441406 101.800781 346.933594 104.382812 C 344.902344 114.878906 342.917969 125.390625 340.898438 135.898438 C 339.746094 141.910156 338.523438 147.894531 337.335938 153.894531 C 337.242188 154.355469 337.335938 154.964844 337.070312 155.265625 C 336.804688 155.566406 336.402344 155.914062 336.007812 156.257812 C 334.9375 157.167969 333.320312 157.214844 332.304688 156.246094 C 332.167969 156.109375 332.050781 155.96875 331.984375 155.84375 C 330.726562 153.316406 329.699219 150.664062 328.742188 148.011719 C 326.179688 140.9375 323.710938 133.84375 321 126.183594 C 319.433594 128.90625 318.117188 130.972656 317.007812 133.152344 C 315.796875 135.539062 313.90625 136.394531 310.976562 136.105469 C 302.09375 135.253906 293.164062 135.171875 284.328125 136.429688 C 280.453125 136.984375 278.15625 136.625 277.1875 133.246094 C 276.660156 131.398438 275.367188 129.773438 273.96875 127.246094 C 272.726562 129.726562 271.917969 131.375 271.074219 133.015625 C 268.917969 137.203125 266.832031 141.421875 264.535156 145.53125 C 264.003906 146.476562 262.769531 147.664062 261.90625 147.628906 C 260.933594 147.582031 259.632812 146.464844 259.171875 145.484375 C 256.910156 140.664062 254.867188 135.738281 252.457031 130.140625 C 251.304688 133.175781 250.160156 135.597656 249.433594 138.148438 C 245.558594 151.769531 241.785156 165.417969 237.980469 179.050781 C 237.554688 180.5625 237.300781 182.203125 236.515625 183.515625 C 235.972656 184.429688 234.667969 185.292969 233.652344 185.363281 C 232.972656 185.398438 231.820312 184.105469 231.554688 183.207031 C 230.953125 181.105469 230.710938 178.890625 230.414062 176.710938 C 228.382812 161.898438 226.8125 147.019531 224.230469 132.3125 C 222.324219 121.46875 221.425781 110.507812 219.613281 99.664062 C 219.464844 98.742188 219.140625 97.855469 218.644531 96.007812 C 216.476562 107.046875 214.425781 117.1875 212.519531 127.351562 C 211.136719 134.757812 209.996094 142.21875 208.632812 149.625 C 208.265625 151.621094 207.640625 153.617188 206.84375 155.484375 C 206.476562 156.351562 205.3125 157.515625 204.628906 157.445312 C 203.628906 157.332031 202.289062 156.429688 201.886719 155.507812 C 200.535156 152.496094 199.53125 149.335938 198.414062 146.234375 C 196.058594 139.75 193.707031 133.257812 191.007812 125.792969 C 189.667969 128.46875 188.6875 130.339844 187.789062 132.242188 C 186.371094 135.253906 184.027344 136.441406 180.347656 136.164062 C 171.742188 135.507812 163.101562 135.507812 154.542969 136.601562 C 150.089844 137.167969 147.726562 135.828125 146.339844 132.265625 C 145.730469 130.683594 144.820312 129.207031 143.863281 127.316406 C 141.046875 132.875 138.472656 138.078125 135.796875 143.234375 C 134.898438 144.976562 134.460938 147.5625 131.863281 147.363281 C 129.394531 147.179688 129.085938 144.640625 128.277344 142.832031 C 126.304688 138.402344 124.425781 133.925781 122.152344 128.632812 C 119.324219 138.632812 116.753906 147.675781 114.214844 156.71875 C 111.917969 164.898438 109.671875 173.101562 107.398438 181.289062 C 107.269531 181.742188 107.085938 182.179688 106.949219 182.628906 C 106.453125 184.210938 105.757812 185.695312 103.777344 185.464844 C 102.058594 185.269531 101.617188 183.816406 101.398438 182.363281 C 100.546875 176.769531 99.691406 171.164062 98.882812 165.554688 C 96.75 150.769531 94.628906 135.96875 92.515625 121.167969 C 91.363281 113.070312 90.265625 104.960938 88.628906 96.746094 C 88.007812 99.6875 87.335938 102.605469 86.761719 105.558594 C 83.679688 121.304688 80.613281 137.050781 77.542969 152.808594 C 77.394531 153.582031 77.472656 154.527344 77.058594 155.09375 C 76.378906 156.003906 75.398438 157.25 74.5 157.285156 C 73.585938 157.320312 72.121094 156.257812 71.765625 155.335938 C 69.804688 150.351562 68.121094 145.277344 66.332031 140.222656 C 64.808594 135.921875 63.296875 131.605469 61.75 127.316406 C 61.554688 126.761719 61.140625 126.300781 60.667969 125.527344 C 59.433594 128.101562 58.269531 130.328125 57.289062 132.632812 C 56.226562 135.113281 54.484375 136.234375 51.773438 136.175781 C 47.21875 136.082031 42.648438 136.164062 38.09375 136.105469 C 34.863281 136.058594 33.410156 135.125 33.464844 133.28125 C 33.523438 131.410156 34.734375 130.683594 38.171875 130.660156 C 42.730469 130.613281 47.285156 130.648438 52.121094 130.648438 C 53.78125 127.328125 55.316406 124.074219 57.035156 120.925781 C 58.175781 118.835938 58.394531 115.375 61.625 115.675781 C 64.726562 115.964844 64.601562 119.378906 65.429688 121.605469 C 67.808594 127.9375 69.976562 134.351562 72.238281 140.730469 C 72.539062 141.585938 72.894531 142.425781 73.957031 143.292969 C 75.007812 138.042969 76.054688 132.785156 77.09375 127.535156 C 80.164062 111.9375 83.21875 96.355469 86.265625 80.757812 C 86.65625 78.761719 86.679688 76.191406 89.449219 76.339844 C 92.148438 76.492188 92.042969 79.132812 92.332031 81.082031 C 95.910156 106.308594 99.4375 131.5625 103.003906 156.789062 C 103.554688 160.675781 104.214844 164.550781 105.011719 169.546875 C 106.277344 165.199219 107.28125 161.863281 108.226562 158.519531 C 111.609375 146.558594 114.964844 134.582031 118.34375 122.621094 C 118.597656 121.710938 118.738281 120.753906 119.152344 119.921875 C 120.238281 117.707031 122.578125 117.523438 124.007812 119.574219 C 124.632812 120.464844 124.988281 121.535156 125.425781 122.550781 C 127.609375 127.582031 129.765625 132.609375 132.222656 138.296875 C 134.839844 132.910156 137.148438 128.167969 139.453125 123.429688 C 140.148438 122.007812 140.722656 120.53125 141.554688 119.195312 C 142.996094 116.863281 144.910156 116.632812 146.363281 118.859375 C 147.886719 121.179688 149.109375 123.761719 150.066406 126.371094 C 151.542969 130.359375 151.878906 130.800781 156.078125 130.8125 C 164.71875 130.835938 173.371094 130.824219 181.871094 130.824219 C 182.609375 129.589844 183.152344 128.828125 183.566406 127.984375 C 185.171875 124.765625 186.714844 121.523438 188.308594 118.296875 C 189.011719 116.863281 189.796875 115.089844 191.664062 115.675781 C 192.761719 116.023438 193.867188 117.382812 194.328125 118.550781 C 196.773438 124.6875 199.011719 130.890625 201.320312 137.085938 C 201.917969 138.703125 202.484375 140.328125 203.394531 142.898438 C 204.285156 140.144531 205.125 138.25 205.507812 136.277344 C 209.105469 117.753906 212.636719 99.203125 216.175781 80.65625 C 216.269531 80.191406 216.328125 79.71875 216.464844 79.269531 C 216.882812 77.886719 217.320312 76.375 219.0625 76.316406 C 221 76.257812 221.75 77.621094 222.003906 79.351562 C 222.890625 85.417969 223.769531 91.5 224.714844 97.554688 C 225.996094 105.777344 227.414062 113.980469 228.601562 122.230469 C 229.410156 127.824219 229.800781 133.476562 230.5625 139.082031 C 231.867188 148.703125 233.320312 158.3125 235.429688 168.070312 C 236.515625 164.425781 237.632812 160.792969 238.671875 157.125 C 240.632812 150.179688 242.582031 143.234375 244.453125 136.277344 C 245.511719 132.332031 246.34375 128.34375 247.402344 124.398438 C 248.097656 121.847656 248.617188 119.136719 251.257812 117.535156 C 253.761719 117.566406 254.566406 119.425781 255.328125 121.386719 C 257.429688 126.796875 259.574219 132.183594 261.960938 138.207031 C 262.78125 136.820312 263.324219 136.003906 263.75 135.125 C 266.242188 130.039062 268.628906 124.894531 271.226562 119.851562 C 272.910156 116.578125 274.800781 116.402344 276.773438 119.425781 C 278.125 121.492188 279.046875 123.867188 279.933594 126.195312 C 281.574219 130.535156 282.265625 130.9375 286.796875 130.8125 C 293.234375 130.636719 299.683594 130.671875 306.121094 130.625 C 308 130.613281 309.878906 130.625 312.117188 130.625 C 313.527344 127.859375 314.945312 125.089844 316.339844 122.320312 C 316.90625 121.191406 317.414062 120.035156 317.988281 118.917969 C 318.773438 117.417969 319.257812 115.503906 321.472656 115.574219 C 323.457031 115.640625 323.875 117.304688 324.402344 118.800781 C 325.339844 121.445312 326.320312 124.074219 327.265625 126.714844 C 327.632812 127.753906 327.957031 128.804688 328.335938 129.84375 C 330.011719 134.351562 331.695312 138.863281 333.515625 143.765625 C 334.695312 138.644531 335.917969 133.890625 336.875 129.082031 C 338.753906 119.691406 340.484375 110.277344 342.285156 100.875 C 343.554688 94.230469 344.808594 87.585938 346.160156 80.953125 C 346.550781 79.027344 346.574219 76.628906 349.285156 76.28125 C 351.015625 76.0625 351.90625 77.65625 352.410156 81.382812 C 354.0625 93.378906 355.699219 105.386719 357.394531 117.382812 C 359.550781 132.621094 361.757812 147.859375 363.949219 163.085938 C 364.214844 164.933594 364.617188 166.765625 365.125 169.464844 C 367.730469 160.203125 370.175781 151.757812 372.484375 143.28125 C 374.121094 137.226562 375.539062 131.097656 377.132812 125.03125 C 377.570312 123.371094 378.101562 121.675781 378.945312 120.1875 C 380.5 117.429688 382.832031 117.453125 384.261719 120.234375 C 385.621094 122.886719 386.648438 125.710938 387.894531 128.433594 C 389.199219 131.261719 390.59375 134.050781 392.246094 137.457031 C 394.332031 134.582031 395.324219 131.859375 396.558594 129.277344 C 398.183594 125.875 399.789062 122.460938 401.609375 119.160156 C 402.902344 116.820312 404.804688 116.65625 406.398438 118.988281 C 407.96875 121.269531 409.039062 123.9375 410.089844 126.53125 C 411.75 130.648438 411.832031 130.890625 416.226562 130.835938 C 424.671875 130.707031 433.148438 130.488281 441.582031 130.328125 Z M 441.582031 130.328125 " fill-opacity="1" fill-rule="nonzero"/></g><g clip-path="url(#f90119ab18)"><path fill="#1d81a0" d="M 1001.808594 130.328125 C 1004.148438 126.117188 1006.285156 122.089844 1008.625 118.203125 C 1009.28125 117.117188 1010.472656 115.839844 1011.578125 115.664062 C 1013.457031 115.363281 1014.046875 117.199219 1014.589844 118.722656 C 1017.128906 125.839844 1019.664062 132.957031 1022.214844 140.0625 C 1022.617188 141.203125 1023.125 142.3125 1023.957031 144.320312 C 1025.375 137.226562 1026.632812 131.078125 1027.820312 124.917969 C 1030.714844 109.933594 1033.589844 94.945312 1036.472656 79.960938 C 1036.507812 79.8125 1036.507812 79.652344 1036.542969 79.5 C 1036.945312 77.933594 1037.441406 76.257812 1039.402344 76.28125 C 1041.292969 76.304688 1041.996094 77.757812 1042.238281 79.476562 C 1042.460938 81.035156 1042.78125 82.582031 1043 84.136719 C 1046.265625 107.347656 1049.507812 130.570312 1052.785156 153.777344 C 1053.441406 158.449219 1054.191406 163.097656 1055.078125 168.949219 C 1055.898438 166.789062 1056.441406 165.613281 1056.785156 164.390625 C 1060.671875 150.605469 1064.527344 136.820312 1068.390625 123.023438 C 1068.472656 122.726562 1068.484375 122.402344 1068.585938 122.101562 C 1069.175781 120.347656 1069.347656 118.121094 1071.839844 118.042969 C 1074.03125 117.972656 1074.503906 119.957031 1075.183594 121.511719 C 1077.503906 126.855469 1079.777344 132.207031 1082.359375 138.238281 C 1084.277344 134.363281 1085.914062 131.054688 1087.539062 127.742188 C 1088.441406 125.910156 1089.222656 124.003906 1090.238281 122.230469 C 1091.277344 120.40625 1091.449219 117.511719 1094.21875 117.488281 C 1097.277344 117.476562 1097.378906 120.589844 1098.417969 122.550781 C 1099.746094 125.042969 1100.816406 127.671875 1102.246094 130.824219 C 1105.398438 130.824219 1108.660156 130.800781 1111.925781 130.835938 C 1113.332031 130.84375 1114.867188 130.660156 1116.125 131.144531 C 1117.09375 131.527344 1118.339844 132.828125 1118.304688 133.683594 C 1118.269531 134.558594 1116.921875 135.496094 1115.988281 136.1875 C 1115.558594 136.507812 1114.765625 136.371094 1114.140625 136.371094 C 1110.355469 136.382812 1106.574219 136.277344 1102.800781 136.417969 C 1100.03125 136.519531 1098.359375 135.378906 1097.34375 132.875 C 1096.582031 130.996094 1095.59375 129.195312 1094.449219 126.867188 C 1093.652344 127.984375 1092.972656 128.710938 1092.546875 129.578125 C 1090.332031 134.097656 1088.1875 138.667969 1086.003906 143.199219 C 1085.53125 144.191406 1085.128906 145.265625 1084.472656 146.117188 C 1083.042969 148 1081.125 147.90625 1079.902344 145.84375 C 1079.027344 144.367188 1078.484375 142.691406 1077.78125 141.101562 C 1076.144531 137.386719 1074.515625 133.683594 1072.484375 129.09375 C 1071.691406 131.386719 1071.125 132.773438 1070.722656 134.214844 C 1066.523438 149.222656 1062.359375 164.230469 1058.160156 179.226562 C 1057.730469 180.738281 1057.386719 182.328125 1056.625 183.667969 C 1056.164062 184.484375 1054.835938 185.523438 1054.179688 185.351562 C 1053.1875 185.097656 1052 184.011719 1051.699219 183.03125 C 1051.066406 180.945312 1050.925781 178.707031 1050.613281 176.527344 C 1047.835938 157.066406 1045.042969 137.59375 1042.273438 118.121094 C 1041.5 112.664062 1040.808594 107.210938 1040.035156 101.753906 C 1039.792969 100.058594 1039.414062 98.382812 1038.894531 95.59375 C 1035.757812 111.730469 1032.828125 126.773438 1029.910156 141.828125 C 1029.195312 145.53125 1028.605469 149.269531 1027.773438 152.949219 C 1027.347656 154.816406 1027.453125 157.445312 1024.625 157.527344 C 1022.179688 157.597656 1021.855469 155.300781 1021.246094 153.570312 C 1018.511719 145.851562 1015.8125 138.125 1013.101562 130.40625 C 1012.582031 128.929688 1012.027344 127.453125 1011.347656 125.5625 C 1009.433594 127.5 1008.613281 129.820312 1007.75 131.988281 C 1006.675781 134.675781 1004.886719 135.992188 1002.121094 136.164062 C 999.765625 136.300781 997.414062 136.488281 995.058594 136.488281 C 987.652344 136.488281 980.25 136.3125 972.84375 136.417969 C 970.363281 136.453125 968.160156 134.929688 967.222656 132.632812 C 966.507812 130.890625 965.585938 129.183594 964.46875 126.820312 C 963.199219 129.277344 962.289062 131.03125 961.386719 132.785156 C 959.3125 136.832031 957.222656 140.882812 955.167969 144.953125 C 954.410156 146.464844 953.253906 147.871094 951.605469 147.457031 C 950.507812 147.179688 949.390625 145.785156 948.882812 144.628906 C 946.992188 140.304688 945.363281 135.875 943.609375 131.492188 C 943.335938 130.789062 942.882812 130.152344 942.273438 129.035156 C 941.605469 131.339844 941.074219 133.140625 940.566406 134.941406 C 936.285156 150.226562 932.007812 165.519531 927.726562 180.804688 C 926.699219 184.496094 925.683594 185.835938 923.988281 185.453125 C 921.3125 184.855469 921.507812 182.375 921.230469 180.507812 C 920.066406 172.882812 919.191406 165.222656 918.027344 157.597656 C 916.664062 148.609375 914.980469 139.671875 913.6875 130.671875 C 912.476562 122.285156 911.601562 113.84375 910.550781 105.433594 C 910.179688 102.527344 909.742188 99.628906 908.867188 96.664062 C 908.300781 99.238281 907.667969 101.800781 907.160156 104.382812 C 905.128906 114.878906 903.144531 125.390625 901.125 135.898438 C 899.972656 141.910156 898.75 147.894531 897.5625 153.894531 C 897.46875 154.355469 897.5625 154.964844 897.296875 155.265625 C 897.03125 155.566406 896.628906 155.914062 896.234375 156.257812 C 895.160156 157.167969 893.546875 157.214844 892.53125 156.246094 C 892.394531 156.109375 892.277344 155.96875 892.207031 155.84375 C 890.953125 153.316406 889.925781 150.664062 888.96875 148.011719 C 886.40625 140.9375 883.9375 133.84375 881.226562 126.183594 C 879.660156 128.90625 878.34375 130.972656 877.234375 133.152344 C 876.023438 135.539062 874.132812 136.394531 871.203125 136.105469 C 862.320312 135.253906 853.390625 135.171875 844.554688 136.429688 C 840.679688 136.984375 838.382812 136.625 837.414062 133.246094 C 836.882812 131.398438 835.59375 129.773438 834.195312 127.246094 C 832.949219 129.726562 832.144531 131.375 831.300781 133.015625 C 829.144531 137.203125 827.054688 141.421875 824.761719 145.53125 C 824.230469 146.476562 822.996094 147.664062 822.128906 147.628906 C 821.160156 147.582031 819.859375 146.464844 819.398438 145.484375 C 817.136719 140.664062 815.09375 135.738281 812.683594 130.140625 C 811.53125 133.175781 810.386719 135.597656 809.660156 138.148438 C 805.785156 151.769531 802.011719 165.417969 798.207031 179.050781 C 797.777344 180.5625 797.527344 182.203125 796.742188 183.515625 C 796.199219 184.429688 794.894531 185.292969 793.878906 185.363281 C 793.199219 185.398438 792.046875 184.105469 791.78125 183.207031 C 791.179688 181.105469 790.9375 178.890625 790.640625 176.710938 C 788.609375 161.898438 787.039062 147.019531 784.457031 132.3125 C 782.550781 121.46875 781.652344 110.507812 779.839844 99.664062 C 779.691406 98.742188 779.367188 97.855469 778.871094 96.007812 C 776.703125 107.046875 774.652344 117.1875 772.746094 127.351562 C 771.363281 134.757812 770.222656 142.21875 768.859375 149.625 C 768.492188 151.621094 767.867188 153.617188 767.070312 155.484375 C 766.703125 156.351562 765.539062 157.515625 764.855469 157.445312 C 763.851562 157.332031 762.515625 156.429688 762.113281 155.507812 C 760.761719 152.496094 759.757812 149.335938 758.640625 146.234375 C 756.285156 139.75 753.933594 133.257812 751.234375 125.792969 C 749.894531 128.46875 748.914062 130.339844 748.015625 132.242188 C 746.597656 135.253906 744.253906 136.441406 740.574219 136.164062 C 731.96875 135.507812 723.328125 135.507812 714.769531 136.601562 C 710.316406 137.167969 707.953125 135.828125 706.566406 132.265625 C 705.957031 130.683594 705.046875 129.207031 704.085938 127.316406 C 701.273438 132.875 698.699219 138.078125 696.023438 143.234375 C 695.125 144.976562 694.6875 147.5625 692.089844 147.363281 C 689.621094 147.179688 689.3125 144.640625 688.503906 142.832031 C 686.53125 138.402344 684.648438 133.925781 682.378906 128.632812 C 679.550781 138.632812 676.980469 147.675781 674.441406 156.71875 C 672.144531 164.898438 669.894531 173.101562 667.625 181.289062 C 667.496094 181.742188 667.3125 182.179688 667.175781 182.628906 C 666.679688 184.210938 665.984375 185.695312 664 185.464844 C 662.28125 185.269531 661.84375 183.816406 661.625 182.363281 C 660.773438 176.769531 659.917969 171.164062 659.109375 165.554688 C 656.976562 150.769531 654.855469 135.96875 652.742188 121.167969 C 651.589844 113.070312 650.492188 104.960938 648.855469 96.746094 C 648.234375 99.6875 647.5625 102.605469 646.988281 105.558594 C 643.90625 121.304688 640.839844 137.050781 637.769531 152.808594 C 637.621094 153.582031 637.699219 154.527344 637.285156 155.09375 C 636.605469 156.003906 635.625 157.25 634.722656 157.285156 C 633.8125 157.320312 632.347656 156.257812 631.992188 155.335938 C 630.03125 150.351562 628.34375 145.277344 626.558594 140.222656 C 625.035156 135.921875 623.523438 131.605469 621.976562 127.316406 C 621.78125 126.761719 621.367188 126.300781 620.894531 125.527344 C 619.660156 128.101562 618.492188 130.328125 617.511719 132.632812 C 616.453125 135.113281 614.710938 136.234375 612 136.175781 C 607.441406 136.082031 602.875 136.164062 598.320312 136.105469 C 595.089844 136.058594 593.636719 135.125 593.691406 133.28125 C 593.75 131.410156 594.960938 130.683594 598.398438 130.660156 C 602.957031 130.613281 607.511719 130.648438 612.34375 130.648438 C 614.007812 127.328125 615.542969 124.074219 617.261719 120.925781 C 618.402344 118.835938 618.621094 115.375 621.851562 115.675781 C 624.953125 115.964844 624.828125 119.378906 625.65625 121.605469 C 628.035156 127.9375 630.203125 134.351562 632.464844 140.730469 C 632.761719 141.585938 633.121094 142.425781 634.183594 143.292969 C 635.230469 138.042969 636.28125 132.785156 637.320312 127.535156 C 640.386719 111.9375 643.445312 96.355469 646.492188 80.757812 C 646.882812 78.761719 646.90625 76.191406 649.675781 76.339844 C 652.375 76.492188 652.269531 79.132812 652.558594 81.082031 C 656.132812 106.308594 659.664062 131.5625 663.230469 156.789062 C 663.78125 160.675781 664.441406 164.550781 665.234375 169.546875 C 666.503906 165.199219 667.507812 161.863281 668.453125 158.519531 C 671.835938 146.558594 675.191406 134.582031 678.570312 122.621094 C 678.824219 121.710938 678.964844 120.753906 679.378906 119.921875 C 680.464844 117.707031 682.804688 117.523438 684.234375 119.574219 C 684.859375 120.464844 685.214844 121.535156 685.652344 122.550781 C 687.835938 127.582031 689.992188 132.609375 692.449219 138.296875 C 695.066406 132.910156 697.375 128.167969 699.679688 123.429688 C 700.375 122.007812 700.949219 120.53125 701.78125 119.195312 C 703.222656 116.863281 705.136719 116.632812 706.589844 118.859375 C 708.113281 121.179688 709.335938 123.761719 710.292969 126.371094 C 711.769531 130.359375 712.105469 130.800781 716.304688 130.8125 C 724.945312 130.835938 733.59375 130.824219 742.097656 130.824219 C 742.835938 129.589844 743.378906 128.828125 743.792969 127.984375 C 745.394531 124.765625 746.941406 121.523438 748.535156 118.296875 C 749.238281 116.863281 750.023438 115.089844 751.890625 115.675781 C 752.988281 116.023438 754.09375 117.382812 754.554688 118.550781 C 757 124.6875 759.238281 130.890625 761.546875 137.085938 C 762.144531 138.703125 762.710938 140.328125 763.621094 142.898438 C 764.511719 140.144531 765.351562 138.25 765.734375 136.277344 C 769.332031 117.753906 772.863281 99.203125 776.402344 80.65625 C 776.496094 80.191406 776.554688 79.71875 776.691406 79.269531 C 777.109375 77.886719 777.546875 76.375 779.289062 76.316406 C 781.226562 76.257812 781.976562 77.621094 782.230469 79.351562 C 783.117188 85.417969 783.996094 91.5 784.941406 97.554688 C 786.21875 105.777344 787.640625 113.980469 788.828125 122.230469 C 789.636719 127.824219 790.027344 133.476562 790.789062 139.082031 C 792.09375 148.703125 793.546875 158.3125 795.65625 168.070312 C 796.742188 164.425781 797.859375 160.792969 798.898438 157.125 C 800.859375 150.179688 802.808594 143.234375 804.675781 136.277344 C 805.738281 132.332031 806.570312 128.34375 807.628906 124.398438 C 808.324219 121.847656 808.839844 119.136719 811.484375 117.535156 C 813.988281 117.566406 814.792969 119.425781 815.554688 121.386719 C 817.65625 126.796875 819.800781 132.183594 822.1875 138.207031 C 823.007812 136.820312 823.550781 136.003906 823.976562 135.125 C 826.46875 130.039062 828.855469 124.894531 831.453125 119.851562 C 833.136719 116.578125 835.027344 116.402344 837 119.425781 C 838.347656 121.492188 839.273438 123.867188 840.160156 126.195312 C 841.796875 130.535156 842.492188 130.9375 847.023438 130.8125 C 853.460938 130.636719 859.910156 130.671875 866.347656 130.625 C 868.226562 130.613281 870.105469 130.625 872.34375 130.625 C 873.753906 127.859375 875.171875 125.089844 876.566406 122.320312 C 877.132812 121.191406 877.640625 120.035156 878.214844 118.917969 C 879 117.417969 879.484375 115.503906 881.699219 115.574219 C 883.683594 115.640625 884.097656 117.304688 884.628906 118.800781 C 885.566406 121.445312 886.546875 124.074219 887.492188 126.714844 C 887.859375 127.753906 888.183594 128.804688 888.5625 129.84375 C 890.238281 134.351562 891.921875 138.863281 893.742188 143.765625 C 894.917969 138.644531 896.140625 133.890625 897.101562 129.082031 C 898.980469 119.691406 900.710938 110.277344 902.511719 100.875 C 903.777344 94.230469 905.035156 87.585938 906.386719 80.953125 C 906.777344 79.027344 906.800781 76.628906 909.511719 76.28125 C 911.242188 76.0625 912.128906 77.65625 912.636719 81.382812 C 914.289062 93.378906 915.925781 105.386719 917.621094 117.382812 C 919.777344 132.621094 921.980469 147.859375 924.175781 163.085938 C 924.4375 164.933594 924.84375 166.765625 925.351562 169.464844 C 927.957031 160.203125 930.402344 151.757812 932.710938 143.28125 C 934.347656 137.226562 935.765625 131.097656 937.359375 125.03125 C 937.796875 123.371094 938.328125 121.675781 939.171875 120.1875 C 940.726562 117.429688 943.058594 117.453125 944.488281 120.234375 C 945.847656 122.886719 946.875 125.710938 948.121094 128.433594 C 949.425781 131.261719 950.820312 134.050781 952.46875 137.457031 C 954.558594 134.582031 955.550781 131.859375 956.785156 129.277344 C 958.410156 125.875 960.015625 122.460938 961.835938 119.160156 C 963.128906 116.820312 965.03125 116.65625 966.625 118.988281 C 968.195312 121.269531 969.265625 123.9375 970.316406 126.53125 C 971.976562 130.648438 972.058594 130.890625 976.453125 130.835938 C 984.898438 130.707031 993.375 130.488281 1001.808594 130.328125 Z M 1001.808594 130.328125 " fill-opacity="1" fill-rule="nonzero"/></g></svg>